<mxfile host="app.diagrams.net" modified="2024-01-29T06:57:07.845Z" agent="Mozilla/5.0 (Macintosh; Intel Mac OS X 10_15_7) AppleWebKit/537.36 (KHTML, like Gecko) Chrome/120.0.0.0 Safari/537.36" etag="5LKOLO6Ks7AAx7KtkDOV" version="23.0.2" type="device">
  <diagram name="Page-1" id="r6px93NiauqsmF3E5kz9">
    <mxGraphModel dx="2840" dy="2318" grid="1" gridSize="10" guides="1" tooltips="1" connect="1" arrows="1" fold="1" page="1" pageScale="1" pageWidth="850" pageHeight="1100" math="0" shadow="0">
      <root>
        <mxCell id="0" />
        <mxCell id="1" parent="0" />
        <mxCell id="DpdopSJwd9GqNMqm-75E-55" style="edgeStyle=orthogonalEdgeStyle;rounded=0;orthogonalLoop=1;jettySize=auto;html=1;exitX=0.5;exitY=0;exitDx=0;exitDy=0;entryX=0.5;entryY=1;entryDx=0;entryDy=0;" edge="1" parent="1" source="DpdopSJwd9GqNMqm-75E-1" target="DpdopSJwd9GqNMqm-75E-22">
          <mxGeometry relative="1" as="geometry">
            <Array as="points">
              <mxPoint x="130" y="530" />
              <mxPoint x="-120" y="530" />
            </Array>
          </mxGeometry>
        </mxCell>
        <mxCell id="DpdopSJwd9GqNMqm-75E-56" style="edgeStyle=orthogonalEdgeStyle;rounded=0;orthogonalLoop=1;jettySize=auto;html=1;exitX=0.5;exitY=0;exitDx=0;exitDy=0;entryX=0.5;entryY=1;entryDx=0;entryDy=0;" edge="1" parent="1" source="DpdopSJwd9GqNMqm-75E-1" target="DpdopSJwd9GqNMqm-75E-25">
          <mxGeometry relative="1" as="geometry">
            <Array as="points">
              <mxPoint x="130" y="530" />
              <mxPoint x="381" y="530" />
            </Array>
          </mxGeometry>
        </mxCell>
        <mxCell id="DpdopSJwd9GqNMqm-75E-1" value="&lt;pre style=&quot;font-size: 10px;&quot;&gt;Player&lt;/pre&gt;&lt;pre style=&quot;text-align: justify; font-size: 10px;&quot;&gt;&lt;font style=&quot;font-size: 10px;&quot;&gt;&lt;font face=&quot;Tahoma&quot; style=&quot;font-size: 10px;&quot;&gt;&lt;br&gt;&lt;/font&gt;&lt;font face=&quot;Tahoma&quot; style=&quot;font-size: 10px;&quot;&gt;- name: String&lt;br&gt;&lt;/font&gt;&lt;span style=&quot;background-color: initial;&quot;&gt;&lt;font face=&quot;Tahoma&quot; style=&quot;font-size: 10px;&quot;&gt;- ovr: int&lt;br&gt;&lt;/font&gt;&lt;/span&gt;&lt;span style=&quot;background-color: initial;&quot;&gt;&lt;font face=&quot;Tahoma&quot; style=&quot;font-size: 10px;&quot;&gt;- height: int&lt;br&gt;&lt;/font&gt;&lt;/span&gt;&lt;font face=&quot;Tahoma&quot; style=&quot;font-size: 10px;&quot;&gt;- weight: int&lt;br&gt;&lt;/font&gt;&lt;font face=&quot;Tahoma&quot; style=&quot;font-size: 10px;&quot;&gt;- popularity: int&lt;br&gt;&lt;/font&gt;&lt;font face=&quot;Tahoma&quot; style=&quot;font-size: 10px;&quot;&gt;- position: String&lt;br&gt;&lt;/font&gt;&lt;font face=&quot;Tahoma&quot; style=&quot;font-size: 10px;&quot;&gt;- isInjured: boolean&lt;br&gt;&lt;/font&gt;&lt;font face=&quot;Tahoma&quot; style=&quot;font-size: 10px;&quot;&gt;- year: int&lt;/font&gt;&lt;/font&gt;&lt;/pre&gt;" style="rounded=0;whiteSpace=wrap;html=1;align=center;" vertex="1" parent="1">
          <mxGeometry x="70" y="570" width="120" height="150" as="geometry" />
        </mxCell>
        <mxCell id="DpdopSJwd9GqNMqm-75E-2" value="" style="endArrow=none;html=1;rounded=0;entryX=1.005;entryY=0.199;entryDx=0;entryDy=0;entryPerimeter=0;exitX=0.003;exitY=0.201;exitDx=0;exitDy=0;exitPerimeter=0;" edge="1" parent="1" source="DpdopSJwd9GqNMqm-75E-1" target="DpdopSJwd9GqNMqm-75E-1">
          <mxGeometry width="50" height="50" relative="1" as="geometry">
            <mxPoint x="270" y="210" as="sourcePoint" />
            <mxPoint x="320" y="160" as="targetPoint" />
            <Array as="points" />
          </mxGeometry>
        </mxCell>
        <mxCell id="DpdopSJwd9GqNMqm-75E-3" value="&lt;pre style=&quot;text-align: justify; font-size: 10px;&quot;&gt;&lt;font style=&quot;font-size: 10px;&quot; face=&quot;Tahoma&quot;&gt;&lt;span style=&quot;font-weight: normal;&quot;&gt;&lt;font style=&quot;font-size: 10px;&quot;&gt;+ Retire()&lt;br&gt;&lt;/font&gt;&lt;/span&gt;&lt;span style=&quot;font-weight: normal;&quot;&gt;&lt;font style=&quot;font-size: 10px;&quot;&gt;+outputPlayerStats()&lt;/font&gt;&lt;/span&gt;&lt;/font&gt;&lt;/pre&gt;" style="rounded=0;whiteSpace=wrap;html=1;" vertex="1" parent="1">
          <mxGeometry x="70" y="720" width="120" height="30" as="geometry" />
        </mxCell>
        <mxCell id="DpdopSJwd9GqNMqm-75E-4" value="&lt;pre style=&quot;text-align: justify; font-size: 10px;&quot;&gt;&lt;font face=&quot;Tahoma&quot;&gt;Team&lt;/font&gt;&lt;/pre&gt;" style="rounded=0;whiteSpace=wrap;html=1;" vertex="1" parent="1">
          <mxGeometry x="540" y="560" width="120" height="30" as="geometry" />
        </mxCell>
        <mxCell id="DpdopSJwd9GqNMqm-75E-5" value="&lt;pre style=&quot;text-align: justify; font-size: 10px;&quot;&gt;&lt;font face=&quot;Tahoma&quot;&gt;- name: String&lt;/font&gt;&lt;/pre&gt;&lt;pre style=&quot;text-align: justify; font-size: 8px;&quot;&gt;&lt;font face=&quot;Tahoma&quot; style=&quot;font-size: 8px;&quot;&gt;&lt;font style=&quot;font-size: 8px;&quot;&gt;- playerList: &lt;/font&gt;ArrayList&amp;lt;Player&amp;gt;&lt;/font&gt;&lt;/pre&gt;&lt;pre style=&quot;text-align: justify;&quot;&gt;&lt;font face=&quot;Tahoma&quot;&gt;&lt;font style=&quot;font-size: 10px;&quot;&gt;- &lt;/font&gt;&lt;font size=&quot;1&quot; style=&quot;&quot;&gt;random: Random&lt;/font&gt;&lt;/font&gt;&lt;/pre&gt;&lt;pre style=&quot;text-align: justify;&quot;&gt;&lt;font face=&quot;Tahoma&quot; size=&quot;1&quot; style=&quot;&quot;&gt;- maxPlayers: int&lt;/font&gt;&lt;/pre&gt;" style="rounded=0;whiteSpace=wrap;html=1;" vertex="1" parent="1">
          <mxGeometry x="540" y="590" width="120" height="100" as="geometry" />
        </mxCell>
        <mxCell id="DpdopSJwd9GqNMqm-75E-6" value="&lt;div style=&quot;text-align: justify;&quot;&gt;&lt;span style=&quot;font-size: 10px; background-color: initial;&quot;&gt;&lt;font face=&quot;Tahoma&quot;&gt;+ chooseTeam(Player p)&lt;/font&gt;&lt;/span&gt;&lt;/div&gt;&lt;div style=&quot;text-align: justify;&quot;&gt;&lt;/div&gt;" style="rounded=0;whiteSpace=wrap;html=1;" vertex="1" parent="1">
          <mxGeometry x="540" y="690" width="120" height="40" as="geometry" />
        </mxCell>
        <mxCell id="DpdopSJwd9GqNMqm-75E-17" value="&lt;pre style=&quot;font-size: 10px;&quot;&gt;&lt;font face=&quot;Tahoma&quot;&gt;&lt;font style=&quot;font-size: 10px;&quot;&gt;&amp;lt;&amp;lt;interface&amp;gt;&amp;gt;&lt;br&gt;&lt;/font&gt;&lt;font style=&quot;font-size: 10px;&quot;&gt;Action&lt;/font&gt;&lt;/font&gt;&lt;/pre&gt;&lt;pre style=&quot;text-align: justify; font-size: 10px;&quot;&gt;&lt;br&gt;&lt;/pre&gt;&lt;pre style=&quot;text-align: justify; font-size: 10px;&quot;&gt;&lt;font style=&quot;font-size: 10px;&quot;&gt;&lt;br&gt;&lt;/font&gt;&lt;/pre&gt;" style="rounded=0;whiteSpace=wrap;html=1;align=center;" vertex="1" parent="1">
          <mxGeometry x="70" y="120" width="120" height="70" as="geometry" />
        </mxCell>
        <mxCell id="DpdopSJwd9GqNMqm-75E-18" value="" style="endArrow=none;html=1;rounded=0;entryX=0.996;entryY=0.424;entryDx=0;entryDy=0;entryPerimeter=0;exitX=0.001;exitY=0.415;exitDx=0;exitDy=0;exitPerimeter=0;" edge="1" source="DpdopSJwd9GqNMqm-75E-17" target="DpdopSJwd9GqNMqm-75E-17" parent="1">
          <mxGeometry width="50" height="50" relative="1" as="geometry">
            <mxPoint x="-140" y="480" as="sourcePoint" />
            <mxPoint x="-90" y="430" as="targetPoint" />
            <Array as="points" />
          </mxGeometry>
        </mxCell>
        <mxCell id="DpdopSJwd9GqNMqm-75E-19" value="&lt;pre style=&quot;text-align: justify; font-size: 10px;&quot;&gt;&lt;font face=&quot;Tahoma&quot;&gt;+newYear(Player P)&lt;/font&gt;&lt;/pre&gt;" style="rounded=0;whiteSpace=wrap;html=1;" vertex="1" parent="1">
          <mxGeometry x="70" y="190" width="120" height="30" as="geometry" />
        </mxCell>
        <mxCell id="DpdopSJwd9GqNMqm-75E-59" style="edgeStyle=orthogonalEdgeStyle;rounded=0;orthogonalLoop=1;jettySize=auto;html=1;exitX=0.5;exitY=0;exitDx=0;exitDy=0;" edge="1" parent="1" source="DpdopSJwd9GqNMqm-75E-20">
          <mxGeometry relative="1" as="geometry">
            <mxPoint x="130" y="220" as="targetPoint" />
          </mxGeometry>
        </mxCell>
        <mxCell id="DpdopSJwd9GqNMqm-75E-20" value="&lt;pre style=&quot;font-size: 10px;&quot;&gt;Event&lt;/pre&gt;&lt;pre style=&quot;text-align: justify; font-size: 8px;&quot;&gt;&lt;br&gt;&lt;/pre&gt;&lt;pre style=&quot;text-align: justify; font-size: 8px;&quot;&gt;&lt;font style=&quot;font-size: 8px;&quot;&gt;&lt;font face=&quot;Tahoma&quot; style=&quot;font-size: 8px;&quot;&gt;- boolDunkContest: boolean&lt;br&gt;&lt;/font&gt;&lt;span style=&quot;background-color: initial;&quot;&gt;&lt;font face=&quot;Tahoma&quot; style=&quot;font-size: 8px;&quot;&gt;- boolPlayGame: boolean&lt;br&gt;&lt;/font&gt;&lt;/span&gt;&lt;span style=&quot;background-color: initial;&quot;&gt;&lt;font face=&quot;Tahoma&quot; style=&quot;font-size: 8px;&quot;&gt;- boolSignDeal: boolean&lt;br&gt;&lt;/font&gt;&lt;/span&gt;&lt;font face=&quot;Tahoma&quot; style=&quot;font-size: 8px;&quot;&gt;- boolPersonalTrainer: boolean&lt;br&gt;&lt;/font&gt;&lt;font face=&quot;Tahoma&quot; style=&quot;font-size: 8px;&quot;&gt;- boolShootShot: boolean&lt;br&gt;&lt;/font&gt;&lt;br&gt;&lt;/font&gt;&lt;/pre&gt;" style="rounded=0;whiteSpace=wrap;html=1;align=center;" vertex="1" parent="1">
          <mxGeometry x="-180" y="330" width="120" height="100" as="geometry" />
        </mxCell>
        <mxCell id="DpdopSJwd9GqNMqm-75E-21" value="" style="endArrow=none;html=1;rounded=0;entryX=1.005;entryY=0.199;entryDx=0;entryDy=0;entryPerimeter=0;exitX=0.003;exitY=0.201;exitDx=0;exitDy=0;exitPerimeter=0;" edge="1" source="DpdopSJwd9GqNMqm-75E-20" target="DpdopSJwd9GqNMqm-75E-20" parent="1">
          <mxGeometry width="50" height="50" relative="1" as="geometry">
            <mxPoint x="-60" y="480" as="sourcePoint" />
            <mxPoint x="-10" y="430" as="targetPoint" />
            <Array as="points" />
          </mxGeometry>
        </mxCell>
        <mxCell id="DpdopSJwd9GqNMqm-75E-65" style="edgeStyle=orthogonalEdgeStyle;rounded=0;orthogonalLoop=1;jettySize=auto;html=1;exitX=0;exitY=0.25;exitDx=0;exitDy=0;" edge="1" parent="1" source="DpdopSJwd9GqNMqm-75E-22" target="DpdopSJwd9GqNMqm-75E-49">
          <mxGeometry relative="1" as="geometry">
            <Array as="points">
              <mxPoint x="-180" y="440" />
              <mxPoint x="-250" y="440" />
            </Array>
          </mxGeometry>
        </mxCell>
        <mxCell id="DpdopSJwd9GqNMqm-75E-22" value="&lt;pre style=&quot;text-align: justify; font-size: 9px;&quot;&gt;&lt;font style=&quot;font-size: 9px;&quot; face=&quot;Tahoma&quot;&gt;&lt;font style=&quot;font-size: 9px;&quot;&gt;&lt;span style=&quot;font-weight: normal;&quot;&gt;&lt;font style=&quot;font-size: 9px;&quot;&gt;+ chooseEvent()&lt;br&gt;&lt;/font&gt;&lt;/span&gt;&lt;/font&gt;&lt;font style=&quot;font-size: 9px;&quot;&gt;&lt;span style=&quot;font-weight: normal;&quot;&gt;&lt;font style=&quot;font-size: 9px;&quot;&gt;+dunkContest(Player p)&lt;br&gt;&lt;/font&gt;&lt;/span&gt;&lt;/font&gt;+playGame(Player p)&lt;br&gt;+signDeal(Player p)&lt;br&gt;+personalTrainer(Player p)&lt;br&gt;+shootShot(Player p)&lt;/font&gt;&lt;/pre&gt;" style="rounded=0;whiteSpace=wrap;html=1;" vertex="1" parent="1">
          <mxGeometry x="-180" y="430" width="120" height="70" as="geometry" />
        </mxCell>
        <mxCell id="DpdopSJwd9GqNMqm-75E-63" style="edgeStyle=orthogonalEdgeStyle;rounded=0;orthogonalLoop=1;jettySize=auto;html=1;entryX=0.5;entryY=1;entryDx=0;entryDy=0;exitX=0.5;exitY=0;exitDx=0;exitDy=0;" edge="1" parent="1" source="DpdopSJwd9GqNMqm-75E-23" target="DpdopSJwd9GqNMqm-75E-19">
          <mxGeometry relative="1" as="geometry" />
        </mxCell>
        <mxCell id="DpdopSJwd9GqNMqm-75E-64" style="edgeStyle=orthogonalEdgeStyle;rounded=0;orthogonalLoop=1;jettySize=auto;html=1;exitX=1;exitY=0.75;exitDx=0;exitDy=0;" edge="1" parent="1" source="DpdopSJwd9GqNMqm-75E-23">
          <mxGeometry relative="1" as="geometry">
            <mxPoint x="520" y="3.2" as="targetPoint" />
          </mxGeometry>
        </mxCell>
        <mxCell id="DpdopSJwd9GqNMqm-75E-23" value="&lt;pre style=&quot;font-size: 10px;&quot;&gt;&lt;span style=&quot;background-color: initial; font-family: Helvetica; white-space: normal;&quot;&gt;Train&lt;/span&gt;&lt;br&gt;&lt;/pre&gt;&lt;pre style=&quot;font-size: 10px;&quot;&gt;&lt;br&gt;&lt;/pre&gt;&lt;pre style=&quot;text-align: justify; font-size: 10px;&quot;&gt;&lt;font style=&quot;font-size: 10px;&quot;&gt;&lt;font face=&quot;Tahoma&quot; style=&quot;font-size: 10px;&quot;&gt;-totalTrained: int&lt;/font&gt;&lt;/font&gt;&lt;/pre&gt;" style="rounded=0;whiteSpace=wrap;html=1;align=center;" vertex="1" parent="1">
          <mxGeometry x="321.20000000000005" y="330" width="120" height="80" as="geometry" />
        </mxCell>
        <mxCell id="DpdopSJwd9GqNMqm-75E-24" value="" style="endArrow=none;html=1;rounded=0;entryX=0.995;entryY=0.359;entryDx=0;entryDy=0;entryPerimeter=0;exitX=-0.01;exitY=0.365;exitDx=0;exitDy=0;exitPerimeter=0;" edge="1" source="DpdopSJwd9GqNMqm-75E-23" target="DpdopSJwd9GqNMqm-75E-23" parent="1">
          <mxGeometry width="50" height="50" relative="1" as="geometry">
            <mxPoint x="341.20000000000005" y="600" as="sourcePoint" />
            <mxPoint x="391.20000000000005" y="550" as="targetPoint" />
            <Array as="points" />
          </mxGeometry>
        </mxCell>
        <mxCell id="DpdopSJwd9GqNMqm-75E-25" value="&lt;pre style=&quot;text-align: justify; font-size: 10px;&quot;&gt;&lt;h1 style=&quot;text-align: justify; font-size: 10px;&quot;&gt;&lt;font style=&quot;font-size: 10px;&quot; face=&quot;Tahoma&quot;&gt;&lt;span style=&quot;font-weight: normal;&quot;&gt;&lt;font style=&quot;font-size: 10px;&quot;&gt;+ chooseTrain(Player p)&lt;br&gt;&lt;/font&gt;&lt;/span&gt;&lt;/font&gt;&lt;font style=&quot;font-size: 10px;&quot; face=&quot;Tahoma&quot;&gt;&lt;span style=&quot;font-weight: normal;&quot;&gt;&lt;font style=&quot;font-size: 10px;&quot;&gt;+lightTrain(Player p)&lt;br&gt;&lt;/font&gt;&lt;/span&gt;&lt;/font&gt;&lt;font style=&quot;font-size: 10px;&quot; face=&quot;Tahoma&quot;&gt;&lt;span style=&quot;font-weight: normal;&quot;&gt;&lt;font style=&quot;font-size: 10px;&quot;&gt;+mediumTrain(Player p)&lt;br&gt;&lt;/font&gt;&lt;/span&gt;&lt;/font&gt;&lt;font style=&quot;font-size: 10px;&quot; face=&quot;Tahoma&quot;&gt;&lt;span style=&quot;font-weight: normal;&quot;&gt;&lt;font style=&quot;font-size: 10px;&quot;&gt;+intenseTrain(Player p)&lt;/font&gt;&lt;/span&gt;&lt;/font&gt;&lt;/h1&gt;&lt;/pre&gt;" style="rounded=0;whiteSpace=wrap;html=1;" vertex="1" parent="1">
          <mxGeometry x="321.20000000000005" y="410" width="120" height="50" as="geometry" />
        </mxCell>
        <mxCell id="DpdopSJwd9GqNMqm-75E-62" style="edgeStyle=orthogonalEdgeStyle;rounded=0;orthogonalLoop=1;jettySize=auto;html=1;exitX=0.5;exitY=1;exitDx=0;exitDy=0;endArrow=none;endFill=0;" edge="1" parent="1" source="DpdopSJwd9GqNMqm-75E-32">
          <mxGeometry relative="1" as="geometry">
            <mxPoint x="-180" y="450" as="targetPoint" />
            <Array as="points">
              <mxPoint x="520" />
              <mxPoint x="520" y="70" />
              <mxPoint x="-250" y="70" />
              <mxPoint x="-250" y="440" />
              <mxPoint x="-180" y="440" />
            </Array>
          </mxGeometry>
        </mxCell>
        <mxCell id="DpdopSJwd9GqNMqm-75E-32" value="&lt;pre style=&quot;&quot;&gt;&lt;span style=&quot;font-size: 8px; font-family: Tahoma; background-color: initial; white-space: normal;&quot;&gt;AlreadyExecutedException&lt;/span&gt;&lt;/pre&gt;&lt;pre style=&quot;text-align: justify; font-size: 10px;&quot;&gt;&lt;font style=&quot;font-size: 10px;&quot;&gt;&lt;font face=&quot;Tahoma&quot; style=&quot;font-size: 10px;&quot;&gt;&lt;br&gt;&lt;/font&gt;&lt;/font&gt;&lt;/pre&gt;&lt;pre style=&quot;text-align: justify; font-size: 10px;&quot;&gt;&lt;font style=&quot;font-size: 10px;&quot;&gt;&lt;font face=&quot;Tahoma&quot; style=&quot;font-size: 10px;&quot;&gt;&lt;br&gt;&lt;/font&gt;&lt;/font&gt;&lt;/pre&gt;&lt;pre style=&quot;text-align: justify; font-size: 10px;&quot;&gt;&lt;font style=&quot;font-size: 10px;&quot;&gt;&lt;font face=&quot;Tahoma&quot; style=&quot;font-size: 10px;&quot;&gt;&lt;br&gt;&lt;/font&gt;&lt;/font&gt;&lt;/pre&gt;&lt;pre style=&quot;text-align: justify; font-size: 10px;&quot;&gt;&lt;font style=&quot;font-size: 10px;&quot;&gt;&lt;font face=&quot;Tahoma&quot; style=&quot;font-size: 10px;&quot;&gt;&lt;br&gt;&lt;/font&gt;&lt;br&gt;&lt;/font&gt;&lt;/pre&gt;" style="rounded=0;whiteSpace=wrap;html=1;align=center;" vertex="1" parent="1">
          <mxGeometry x="441.2" y="-130" width="150" height="130" as="geometry" />
        </mxCell>
        <mxCell id="DpdopSJwd9GqNMqm-75E-33" value="" style="endArrow=none;html=1;rounded=0;entryX=1.005;entryY=0.199;entryDx=0;entryDy=0;entryPerimeter=0;exitX=0.003;exitY=0.201;exitDx=0;exitDy=0;exitPerimeter=0;" edge="1" source="DpdopSJwd9GqNMqm-75E-32" target="DpdopSJwd9GqNMqm-75E-32" parent="1">
          <mxGeometry width="50" height="50" relative="1" as="geometry">
            <mxPoint x="511.2" y="-380" as="sourcePoint" />
            <mxPoint x="561.2" y="-430" as="targetPoint" />
            <Array as="points" />
          </mxGeometry>
        </mxCell>
        <mxCell id="DpdopSJwd9GqNMqm-75E-34" value="&lt;pre style=&quot;text-align: justify;&quot;&gt;&lt;font style=&quot;&quot; face=&quot;Tahoma&quot;&gt;&lt;span style=&quot;font-weight: normal;&quot;&gt;&lt;font style=&quot;font-size: 8px;&quot;&gt;+ AlreadyExecutedException(String msg)&lt;/font&gt;&lt;/span&gt;&lt;span style=&quot;font-size: 10px;&quot;&gt;&lt;br&gt;&lt;/span&gt;&lt;/font&gt;&lt;/pre&gt;" style="rounded=0;whiteSpace=wrap;html=1;" vertex="1" parent="1">
          <mxGeometry x="441.2" y="-40" width="150" height="40" as="geometry" />
        </mxCell>
        <mxCell id="DpdopSJwd9GqNMqm-75E-39" value="" style="endArrow=diamond;shadow=0;strokeWidth=1;rounded=0;endFill=0;edgeStyle=elbowEdgeStyle;elbow=vertical;startArrow=none;startFill=0;entryX=-0.013;entryY=0.597;entryDx=0;entryDy=0;entryPerimeter=0;exitX=1.026;exitY=0.535;exitDx=0;exitDy=0;exitPerimeter=0;" edge="1" parent="1" source="DpdopSJwd9GqNMqm-75E-1" target="DpdopSJwd9GqNMqm-75E-5">
          <mxGeometry x="0.5" y="41" relative="1" as="geometry">
            <mxPoint x="320" y="650" as="sourcePoint" />
            <mxPoint x="530" y="650" as="targetPoint" />
            <mxPoint x="-40" y="32" as="offset" />
          </mxGeometry>
        </mxCell>
        <mxCell id="DpdopSJwd9GqNMqm-75E-40" value="13..*" style="resizable=0;align=left;verticalAlign=bottom;labelBackgroundColor=none;fontSize=12;" connectable="0" vertex="1" parent="DpdopSJwd9GqNMqm-75E-39">
          <mxGeometry x="-1" relative="1" as="geometry">
            <mxPoint y="4" as="offset" />
          </mxGeometry>
        </mxCell>
        <mxCell id="DpdopSJwd9GqNMqm-75E-48" value="&lt;div style=&quot;text-align: justify; font-size: 10px;&quot;&gt;&lt;br&gt;&lt;/div&gt;" style="rounded=0;whiteSpace=wrap;html=1;" vertex="1" parent="1">
          <mxGeometry x="-320" y="-100" width="140" height="90" as="geometry" />
        </mxCell>
        <mxCell id="DpdopSJwd9GqNMqm-75E-49" value="&lt;div style=&quot;text-align: justify;&quot;&gt;&lt;span style=&quot;font-size: 10px; font-family: Tahoma; background-color: initial;&quot;&gt;+InjuredException(String msg)&lt;/span&gt;&lt;/div&gt;" style="rounded=0;whiteSpace=wrap;html=1;" vertex="1" parent="1">
          <mxGeometry x="-320" y="-60" width="140" height="50" as="geometry" />
        </mxCell>
        <mxCell id="DpdopSJwd9GqNMqm-75E-50" value="&lt;font style=&quot;font-size: 10px;&quot;&gt;InjuredException&lt;/font&gt;" style="rounded=0;whiteSpace=wrap;html=1;" vertex="1" parent="1">
          <mxGeometry x="-320" y="-130" width="140" height="30" as="geometry" />
        </mxCell>
      </root>
    </mxGraphModel>
  </diagram>
</mxfile>
